# ProBuilder 4.2.3
# https://unity3d.com/unity/features/worldbuilding/probuilder
# 28.03.2020 0:28:13

mtllib ./BkackSword.mtl
o BkackSword

g New Game Object
v -0.08504631 0.05 0.1008561
v -0.03507616 0.05 0.904301
v -0.1282878 0.04999976 1.057045
v -0.2063279 0.04999976 0.910809
v -0.1743579 0.04999976 0.09545255
v -0.3705316 0.04999952 0.07439661
v -0.3625875 0.04999976 0.01709711
v -0.1744051 0.04999976 0.05840015
v -0.1614461 0.04999976 -0.1489194
v -0.1944904 0.04999976 -0.2052091
v -0.1389761 0.04999976 -0.2177584
v -0.07370998 0.04999976 -0.2081031
v -0.09766866 0.04999976 -0.148316
v -0.07668354 0.04999976 0.05603814
v 0.09516905 0.04999976 0.0302577
v 0.09590743 0.04999976 0.08368945
v -0.07668352 -2.384186E-07 0.05603814
v 0.09516907 -2.384186E-07 0.0302577
v 0.09590745 -2.384186E-07 0.08368945
v -0.2063279 -2.384186E-07 0.910809
v -0.03507614 0 0.904301
v -0.1282878 -2.384186E-07 1.057045
v -0.08504629 0 0.1008561
v -0.1743579 -2.384186E-07 0.09545255
v -0.3705316 -4.768372E-07 0.07439661
v -0.3625875 -2.384186E-07 0.01709712
v -0.1744051 -2.384186E-07 0.05840015
v -0.1389761 -2.384186E-07 -0.2177584
v -0.07370996 -2.384186E-07 -0.2081031
v -0.09766865 -2.384186E-07 -0.148316
v -0.1944904 -2.384186E-07 -0.2052091
v -0.1614461 -2.384186E-07 -0.1489194

vt 0.08504629 0.1008561
vt 0.03507614 0.904301
vt 0.1282878 1.057045
vt 0.2063279 0.910809
vt 0.1743579 0.09545255
vt 0.3705316 0.07439661
vt 0.3625875 0.01709712
vt 0.1744051 0.05840015
vt 0.1614461 -0.1489194
vt 0.1944904 -0.2052091
vt 0.1389761 -0.2177584
vt 0.07370996 -0.2081031
vt 0.09766865 -0.148316
vt 0.07668352 0.05603814
vt -0.09516907 0.0302577
vt -0.09590745 0.08368945
vt -0.07668352 0.05603814
vt 0.09516907 0.0302577
vt 0.09590745 0.08368945
vt -0.2063279 0.910809
vt -0.03507614 0.904301
vt -0.1282878 1.057045
vt -0.08504629 0.1008561
vt -0.1743579 0.09545255
vt -0.3705316 0.07439661
vt -0.3625875 0.01709712
vt -0.1744051 0.05840015
vt -0.1389761 -0.2177584
vt -0.07370996 -0.2081031
vt -0.09766865 -0.148316
vt -0.1944904 -0.2052091
vt -0.1614461 -0.1489194
vt 0.08414849 -2.436109E-07
vt -0.08962707 -2.436109E-07
vt 0.0841485 0.04999976
vt -0.08962706 0.04999976
vt -0.03156985 -2.665536E-07
vt -0.08500669 -2.665536E-07
vt -0.03156984 0.04999973
vt -0.08500669 0.04999973
vt -0.7901915 -1.402741E-07
vt -0.9691303 -3.786927E-07
vt -0.7901915 0.04999986
vt -0.9691303 0.04999962
vt 0.8721609 -7.781036E-08
vt 0.7064045 -7.781036E-08
vt 0.8721609 0.04999992
vt 0.7064045 0.04999992
vt -0.09538233 2.711032E-08
vt -0.9003797 2.711032E-08
vt -0.09538232 0.05000003
vt -0.9003797 0.05000003
vt 0.9181936 -1.876493E-07
vt 0.1022106 -1.876493E-07
vt 0.9181936 0.04999981
vt 0.1022106 0.04999981
vt 0.1245762 -2.661802E-07
vt 0.06672864 -2.776161E-08
vt 0.1245762 0.04999974
vt 0.06672864 0.04999997
vt 0.350492 -2.332241E-07
vt 0.1578303 -2.332241E-07
vt 0.3504921 0.04999977
vt 0.1578303 0.04999977
vt -0.1631754 -2.348082E-07
vt -0.3604759 -4.732268E-07
vt -0.1631754 0.04999977
vt -0.3604759 0.04999953
vt 0.1693478 -2.469267E-07
vt 0.1033713 -2.469267E-07
vt 0.1693478 0.04999975
vt 0.1033713 0.04999975
vt 0.1657515 -1.980764E-07
vt 0.1013426 -1.980764E-07
vt 0.1657515 0.0499998
vt 0.1013425 0.0499998
vt 0.144457 -2.224479E-07
vt 0.08754191 -2.224479E-07
vt 0.144457 0.04999978
vt 0.08754192 0.04999978
vt -0.2101585 -2.220117E-07
vt -0.2754307 -2.220117E-07
vt -0.2101585 0.04999978
vt -0.2754307 0.04999978
vt 0.06916677 -1.869357E-07
vt -0.1385574 -1.869357E-07
vt 0.06916676 0.04999981
vt -0.1385574 0.04999981
vt -0.04791155 -2.141065E-07
vt -0.04791155 0.04999979
vt -0.09419134 -2.599966E-09
vt -0.09419136 0.05

vn 0.6240469 0.571203 0.533191
vn 0.85969 0.464276 0.2130279
vn -0.02032094 0.7098914 0.7040181
vn -0.865445 0.4599838 0.1985441
vn -0.6245871 0.5647491 0.5393974
vn -0.6401087 0.5833766 0.4999325
vn -0.460269 0.5930187 -0.6606673
vn -0.4774632 0.609264 -0.6331084
vn -0.8619931 0.4633282 0.205657
vn -0.7000578 0.6464801 -0.3032863
vn -0.03361513 0.4533649 -0.8906909
vn 0.6748217 0.6279824 -0.3876257
vn 0.8804144 0.4578316 0.1235343
vn 0.4964417 0.5865236 -0.6399497
vn 0.5153201 0.6051557 -0.6068211
vn 0.6154873 0.5624237 0.5521368
vn 0.4964426 -0.5865247 -0.639948
vn 0.5153201 -0.6051556 -0.6068211
vn 0.6154861 -0.5624228 0.552139
vn -0.8654445 -0.4599849 0.1985442
vn 0.8596906 -0.4642752 0.2130274
vn -0.02031901 -0.7098919 0.7040176
vn 0.624047 -0.5712015 0.5331925
vn -0.6245854 -0.5647502 0.5393981
vn -0.6401084 -0.5833783 0.4999309
vn -0.4602665 -0.5930175 -0.66067
vn -0.4774624 -0.6092647 -0.6331084
vn -0.03361513 -0.4533649 -0.8906909
vn 0.6748218 -0.6279823 -0.3876258
vn 0.8804146 -0.4578312 0.1235344
vn -0.7000576 -0.6464804 -0.3032862
vn -0.861993 -0.4633286 0.2056569

usemtl Black
f 16/16/16 15/15/15 14/14/14
f 3/3/3 2/2/2 4/4/4
f 2/2/2 1/1/1 4/4/4
f 1/1/1 5/5/5 4/4/4
f 8/8/8 7/7/7 6/6/6
f 5/5/5 8/8/8 6/6/6
f 5/5/5 1/1/1 8/8/8
f 13/13/13 12/12/12 11/11/11
f 9/9/9 11/11/11 10/10/10
f 13/13/13 11/11/11 9/9/9
f 8/8/8 13/13/13 9/9/9
f 13/13/13 8/8/8 14/14/14
f 8/8/8 1/1/1 14/14/14
f 16/16/16 14/14/14 1/1/1
f 23/23/23 17/17/17 19/19/19
f 17/17/17 23/23/23 27/27/27
f 17/17/17 27/27/27 30/30/30
f 32/32/32 30/30/30 27/27/27
f 32/32/32 28/28/28 30/30/30
f 31/31/31 28/28/28 32/32/32
f 28/28/28 29/29/29 30/30/30
f 27/27/27 23/23/23 24/24/24
f 25/25/25 27/27/27 24/24/24
f 25/25/25 26/26/26 27/27/27
f 20/20/20 24/24/24 23/23/23
f 20/20/20 23/23/23 21/21/21
f 20/20/20 21/21/21 22/22/22
f 17/17/17 18/18/18 19/19/19
f 15/36/15 18/34/18 17/33/17
f 17/33/17 14/35/14 15/36/15
f 16/40/16 19/38/19 18/37/18
f 18/37/18 15/39/15 16/40/16
f 3/44/3 22/42/22 21/41/21
f 21/41/21 2/43/2 3/44/3
f 4/48/4 20/46/20 22/45/22
f 22/45/22 3/47/3 4/48/4
f 2/52/2 21/50/21 23/49/23
f 23/49/23 1/51/1 2/52/2
f 5/56/5 24/54/24 20/53/20
f 20/53/20 4/55/4 5/56/5
f 7/60/7 26/58/26 25/57/25
f 25/57/25 6/59/6 7/60/7
f 8/64/8 27/62/27 26/61/26
f 26/61/26 7/63/7 8/64/8
f 6/68/6 25/66/25 24/65/24
f 24/65/24 5/67/5 6/68/6
f 12/72/12 29/70/29 28/69/28
f 28/69/28 11/71/11 12/72/12
f 13/76/13 30/74/30 29/73/29
f 29/73/29 12/75/12 13/76/13
f 11/80/11 28/78/28 31/77/31
f 31/77/31 10/79/10 11/80/11
f 10/84/10 31/82/31 32/81/32
f 32/81/32 9/83/9 10/84/10
f 9/88/9 32/86/32 27/85/27
f 27/85/27 8/87/8 9/88/9
f 14/90/14 17/89/17 30/62/30
f 30/62/30 13/64/13 14/90/14
f 1/92/1 23/91/23 19/78/19
f 19/78/19 16/80/16 1/92/1

